<svg xmlns="http://www.w3.org/2000/svg" width="24" height="24" viewBox="0 0 24 24">
  <defs>
    <linearGradient id="vibely-gradient" x1="0%" y1="0%" x2="100%" y2="100%">
      <stop offset="0%" style="stop-color:#9333ea;stop-opacity:1" />
      <stop offset="100%" style="stop-color:#ec4899;stop-opacity:1" />
    </linearGradient>
  </defs>
  <path fill="url(#vibely-gradient)" d="M12 2c5.523 0 10 4.477 10 10s-4.477 10-10 10S2 17.523 2 12S6.477 2 12 2m2.243 5.03a1 1 0 0 0-1.213.727L12 11.875l-1.03-4.118a1 1 0 1 0-1.94.486l2 8c.252 1.01 1.688 1.01 1.94 0l2-8a1 1 0 0 0-.727-1.213"/>
</svg>
